<svg width="40" height="32" viewBox="0 0 40 32" fill="none" xmlns="http://www.w3.org/2000/svg">
<path d="M11.0676 0.642975H6.27304C2.86166 0.642975 0.0961914 3.39321 0.0961914 6.78579V24.4511C0.88775 21.3873 3.68368 19.1232 7.01135 19.1232C8.51798 19.1232 9.91561 19.5873 11.0676 20.3797L11.0676 0.642975Z" fill="#3256E3"/>
<path d="M30.9738 6.49831C30.8228 3.2392 28.1181 0.642975 24.8036 0.642975H14.9262C15.2616 1.35081 15.7067 2.09174 16.2614 2.83123C17.6429 4.67284 19.5773 6.33022 21.7791 7.28073C23.9575 8.22111 26.3769 8.46598 28.8566 7.55681C29.5462 7.30398 30.2542 6.9568 30.9738 6.49831Z" fill="#3256E3"/>
<path d="M7.01135 30.2518C9.24861 30.2518 11.0623 28.4482 11.0623 26.2232C11.0623 23.9983 9.24861 22.1946 7.01135 22.1946C4.77408 22.1946 2.96042 23.9983 2.96042 26.2232C2.96042 28.4482 4.77408 30.2518 7.01135 30.2518Z" fill="#3256E3"/>
<path d="M24.8037 31.3571H11.9432C13.1491 30.211 13.9519 28.649 14.1186 26.9026C14.1432 26.7938 14.1561 26.6807 14.1561 26.5646L14.1562 5.14384C15.7798 7.16022 17.9806 8.9892 20.5495 10.0982C23.8808 11.5362 27.6721 11.6375 30.9806 10.0919L36.9719 7.67917C38.322 7.15547 39.7791 8.14568 39.7791 9.58678V23.0885C39.7791 24.5296 38.322 25.5198 36.9719 24.9961L30.9806 22.6719V25.2142C30.9806 28.6068 28.2151 31.3571 24.8037 31.3571Z" fill="#3256E3"/>
</svg>