<svg width="73" height="18" viewBox="0 0 73 18" fill="none" xmlns="http://www.w3.org/2000/svg">
<path d="M2.19273 17.6791C1.73652 17.6791 1.38621 17.5507 1.14181 17.2939C0.897408 17.0371 0.775208 16.684 0.775208 16.2346V1.76537C0.775208 1.29992 0.905554 0.946812 1.16625 0.70606C1.42694 0.449257 1.7854 0.320855 2.24161 0.320855C2.64894 0.320855 2.96666 0.401106 3.19477 0.561609C3.43917 0.70606 3.65913 0.962863 3.85465 1.33202L9.89134 12.3344H9.10926L15.1459 1.33202C15.3415 0.962863 15.5533 0.70606 15.7814 0.561609C16.0095 0.401106 16.3272 0.320855 16.7346 0.320855C17.1908 0.320855 17.5411 0.449257 17.7855 0.70606C18.0299 0.946812 18.1521 1.29992 18.1521 1.76537V16.2346C18.1521 16.684 18.0299 17.0371 17.7855 17.2939C17.5574 17.5507 17.2071 17.6791 16.7346 17.6791C16.2783 17.6791 15.928 17.5507 15.6836 17.2939C15.4392 17.0371 15.317 16.684 15.317 16.2346V5.08776H15.8547L10.7223 14.3086C10.5594 14.5814 10.3883 14.7821 10.2091 14.9105C10.0298 15.0389 9.78543 15.1031 9.47586 15.1031C9.16629 15.1031 8.91374 15.0389 8.71822 14.9105C8.5227 14.766 8.35162 14.5654 8.20498 14.3086L3.02369 5.06368H3.61025V16.2346C3.61025 16.684 3.48805 17.0371 3.24365 17.2939C3.01554 17.5507 2.66524 17.6791 2.19273 17.6791Z" fill="#0A112D"/>
<path d="M29.6673 17.7273C28.0054 17.7273 26.5472 17.3661 25.2926 16.6439C24.0543 15.9216 23.093 14.9105 22.4087 13.6104C21.7243 12.2943 21.3822 10.7535 21.3822 8.98795C21.3822 7.65579 21.5777 6.46005 21.9687 5.40074C22.3598 4.32538 22.9137 3.41051 23.6307 2.65616C24.3639 1.88575 25.2355 1.29992 26.2457 0.898662C27.2722 0.481358 28.4128 0.272705 29.6673 0.272705C31.3456 0.272705 32.8038 0.633834 34.0421 1.35609C35.2804 2.0623 36.2417 3.06544 36.926 4.3655C37.6104 5.66557 37.9525 7.19836 37.9525 8.96388C37.9525 10.296 37.757 11.4998 37.366 12.5752C36.9749 13.6505 36.4128 14.5734 35.6796 15.3438C34.9627 16.1142 34.091 16.7081 33.0645 17.1254C32.0543 17.5266 30.9219 17.7273 29.6673 17.7273ZM29.6673 15.079C30.7264 15.079 31.6225 14.8382 32.3557 14.3567C33.1052 13.8752 33.6755 13.177 34.0665 12.2622C34.4739 11.3473 34.6775 10.2559 34.6775 8.98795C34.6775 7.06193 34.2376 5.56926 33.3578 4.50995C32.4942 3.45064 31.2641 2.92098 29.6673 2.92098C28.6246 2.92098 27.7284 3.16174 26.9789 3.64324C26.2294 4.1087 25.651 4.79885 25.2437 5.71371C24.8527 6.61252 24.6571 7.70394 24.6571 8.98795C24.6571 10.8979 25.0971 12.3906 25.9769 13.466C26.8567 14.5413 28.0869 15.079 29.6673 15.079Z" fill="#0A112D"/>
<path d="M48.8566 17.7273C47.1947 17.7273 45.7364 17.3661 44.4818 16.6439C43.2435 15.9216 42.2822 14.9105 41.5979 13.6104C40.9136 12.2943 40.5714 10.7535 40.5714 8.98795C40.5714 7.65579 40.7669 6.46005 41.158 5.40074C41.549 4.32538 42.103 3.41051 42.8199 2.65616C43.5531 1.88575 44.4248 1.29992 45.435 0.898662C46.4615 0.481358 47.602 0.272705 48.8566 0.272705C50.5348 0.272705 51.9931 0.633834 53.2314 1.35609C54.4697 2.0623 55.431 3.06544 56.1153 4.3655C56.7996 5.66557 57.1418 7.19836 57.1418 8.96388C57.1418 10.296 56.9462 11.4998 56.5552 12.5752C56.1642 13.6505 55.602 14.5734 54.8688 15.3438C54.1519 16.1142 53.2802 16.7081 52.2538 17.1254C51.2436 17.5266 50.1112 17.7273 48.8566 17.7273ZM48.8566 15.079C49.9157 15.079 50.8118 14.8382 51.545 14.3567C52.2945 13.8752 52.8648 13.177 53.2558 12.2622C53.6631 11.3473 53.8668 10.2559 53.8668 8.98795C53.8668 7.06193 53.4269 5.56926 52.547 4.50995C51.6835 3.45064 50.4533 2.92098 48.8566 2.92098C47.8138 2.92098 46.9177 3.16174 46.1682 3.64324C45.4187 4.1087 44.8403 4.79885 44.4329 5.71371C44.0419 6.61252 43.8464 7.70394 43.8464 8.98795C43.8464 10.8979 44.2863 12.3906 45.1661 13.466C46.046 14.5413 47.2761 15.079 48.8566 15.079Z" fill="#0A112D"/>
<path d="M60.6735 17.4865C60.2662 17.4865 59.9322 17.4063 59.6715 17.2458C59.4271 17.0853 59.256 16.8686 59.1582 16.5957C59.0768 16.3068 59.0768 15.9939 59.1582 15.6568C59.256 15.3037 59.4434 14.9426 59.7204 14.5734L69.0565 2.10242V3.08951H60.4291C59.9729 3.08951 59.6226 2.97716 59.3782 2.75246C59.1501 2.52775 59.036 2.20675 59.036 1.78945C59.036 1.37214 59.1501 1.05916 59.3782 0.850511C59.6226 0.625809 59.9729 0.513457 60.4291 0.513457H70.5473C70.9546 0.513457 71.2805 0.593708 71.5249 0.75421C71.7856 0.914712 71.9567 1.13139 72.0381 1.40424C72.1359 1.6771 72.1359 1.99007 72.0381 2.34318C71.9567 2.69628 71.7775 3.05741 71.5005 3.42656L62.1644 15.8735V14.9105H71.1583C71.6145 14.9105 71.9567 15.0228 72.1848 15.2475C72.4292 15.4562 72.5514 15.7692 72.5514 16.1865C72.5514 16.6038 72.4292 16.9248 72.1848 17.1495C71.9567 17.3742 71.6145 17.4865 71.1583 17.4865H60.6735Z" fill="#0A112D"/>
</svg>
